<mxfile host="app.diagrams.net" agent="Mozilla/5.0 (Macintosh; Intel Mac OS X 10_15_7) AppleWebKit/537.36 (KHTML, like Gecko) Chrome/137.0.0.0 Safari/537.36" version="27.0.9" pages="2">
  <diagram id="7R_8KerAROTvG95FH5Md" name="Page-1">
    <mxGraphModel dx="2072" dy="739" grid="1" gridSize="10" guides="1" tooltips="1" connect="1" arrows="1" fold="1" page="1" pageScale="1" pageWidth="850" pageHeight="1100" math="0" shadow="0">
      <root>
        <mxCell id="0" />
        <mxCell id="1" parent="0" />
        <mxCell id="5ipQD0PV4N8gilD_4Z1T-87" value="Process" style="group" parent="1" vertex="1" connectable="0">
          <mxGeometry x="590" y="510" width="671" height="810" as="geometry" />
        </mxCell>
        <mxCell id="5ipQD0PV4N8gilD_4Z1T-2" value="" style="whiteSpace=wrap;strokeWidth=2;" parent="5ipQD0PV4N8gilD_4Z1T-87" vertex="1">
          <mxGeometry width="671" height="810" as="geometry" />
        </mxCell>
        <mxCell id="5ipQD0PV4N8gilD_4Z1T-85" style="edgeStyle=orthogonalEdgeStyle;rounded=0;orthogonalLoop=1;jettySize=auto;html=1;exitX=0.5;exitY=1;exitDx=0;exitDy=0;entryX=0.5;entryY=0;entryDx=0;entryDy=0;" parent="5ipQD0PV4N8gilD_4Z1T-87" source="5ipQD0PV4N8gilD_4Z1T-25" target="5ipQD0PV4N8gilD_4Z1T-26" edge="1">
          <mxGeometry relative="1" as="geometry" />
        </mxCell>
        <mxCell id="5ipQD0PV4N8gilD_4Z1T-25" value="Initialize Statuses" style="whiteSpace=wrap;strokeWidth=2;" parent="5ipQD0PV4N8gilD_4Z1T-87" vertex="1">
          <mxGeometry x="218" y="183.25688073394497" width="187" height="79.26605504587157" as="geometry" />
        </mxCell>
        <mxCell id="5ipQD0PV4N8gilD_4Z1T-86" style="edgeStyle=orthogonalEdgeStyle;rounded=0;orthogonalLoop=1;jettySize=auto;html=1;exitX=0.5;exitY=1;exitDx=0;exitDy=0;" parent="5ipQD0PV4N8gilD_4Z1T-87" source="5ipQD0PV4N8gilD_4Z1T-26" target="5ipQD0PV4N8gilD_4Z1T-28" edge="1">
          <mxGeometry relative="1" as="geometry" />
        </mxCell>
        <mxCell id="5ipQD0PV4N8gilD_4Z1T-26" value="Soft Deletion" style="whiteSpace=wrap;strokeWidth=2;" parent="5ipQD0PV4N8gilD_4Z1T-87" vertex="1">
          <mxGeometry x="235" y="324.50009551338445" width="154" height="59.91780821917808" as="geometry" />
        </mxCell>
        <mxCell id="5ipQD0PV4N8gilD_4Z1T-83" style="edgeStyle=orthogonalEdgeStyle;rounded=0;orthogonalLoop=1;jettySize=auto;html=1;exitX=0.5;exitY=1;exitDx=0;exitDy=0;entryX=0.5;entryY=0;entryDx=0;entryDy=0;" parent="5ipQD0PV4N8gilD_4Z1T-87" source="5ipQD0PV4N8gilD_4Z1T-28" target="5ipQD0PV4N8gilD_4Z1T-29" edge="1">
          <mxGeometry relative="1" as="geometry" />
        </mxCell>
        <mxCell id="5ipQD0PV4N8gilD_4Z1T-28" value="Optimization" style="whiteSpace=wrap;strokeWidth=2;" parent="5ipQD0PV4N8gilD_4Z1T-87" vertex="1">
          <mxGeometry x="235" y="403.76384315696873" width="153" height="59.91780821917808" as="geometry" />
        </mxCell>
        <mxCell id="5ipQD0PV4N8gilD_4Z1T-84" style="edgeStyle=orthogonalEdgeStyle;rounded=0;orthogonalLoop=1;jettySize=auto;html=1;exitX=0.5;exitY=1;exitDx=0;exitDy=0;entryX=0.5;entryY=0;entryDx=0;entryDy=0;" parent="5ipQD0PV4N8gilD_4Z1T-87" source="5ipQD0PV4N8gilD_4Z1T-29" target="5ipQD0PV4N8gilD_4Z1T-30" edge="1">
          <mxGeometry relative="1" as="geometry" />
        </mxCell>
        <mxCell id="5ipQD0PV4N8gilD_4Z1T-29" value="Status Update" style="whiteSpace=wrap;strokeWidth=2;" parent="5ipQD0PV4N8gilD_4Z1T-87" vertex="1">
          <mxGeometry x="231.5" y="512.7537187382179" width="161" height="59.91780821917808" as="geometry" />
        </mxCell>
        <mxCell id="5ipQD0PV4N8gilD_4Z1T-30" value="Vacuum" style="whiteSpace=wrap;strokeWidth=2;" parent="5ipQD0PV4N8gilD_4Z1T-87" vertex="1">
          <mxGeometry x="254" y="720.8269775040844" width="115" height="59.91780821917808" as="geometry" />
        </mxCell>
        <mxCell id="5ipQD0PV4N8gilD_4Z1T-93" value="" style="group" parent="1" vertex="1" connectable="0">
          <mxGeometry x="1330" y="510" width="531" height="810" as="geometry" />
        </mxCell>
        <mxCell id="5ipQD0PV4N8gilD_4Z1T-1" value="" style="whiteSpace=wrap;strokeWidth=2;" parent="5ipQD0PV4N8gilD_4Z1T-93" vertex="1">
          <mxGeometry width="531" height="809.9999999999999" as="geometry" />
        </mxCell>
        <mxCell id="5ipQD0PV4N8gilD_4Z1T-89" style="edgeStyle=orthogonalEdgeStyle;rounded=0;orthogonalLoop=1;jettySize=auto;html=1;exitX=0.5;exitY=1;exitDx=0;exitDy=0;" parent="5ipQD0PV4N8gilD_4Z1T-93" source="5ipQD0PV4N8gilD_4Z1T-31" target="5ipQD0PV4N8gilD_4Z1T-32" edge="1">
          <mxGeometry relative="1" as="geometry" />
        </mxCell>
        <mxCell id="5ipQD0PV4N8gilD_4Z1T-31" value="Populate_NGP_Control_Table" style="whiteSpace=wrap;strokeWidth=2;" parent="5ipQD0PV4N8gilD_4Z1T-93" vertex="1">
          <mxGeometry x="131" y="47.64705882352941" width="269" height="73.51260504201682" as="geometry" />
        </mxCell>
        <mxCell id="5ipQD0PV4N8gilD_4Z1T-90" style="edgeStyle=orthogonalEdgeStyle;rounded=0;orthogonalLoop=1;jettySize=auto;html=1;exitX=0.5;exitY=1;exitDx=0;exitDy=0;entryX=0.5;entryY=0;entryDx=0;entryDy=0;" parent="5ipQD0PV4N8gilD_4Z1T-93" source="5ipQD0PV4N8gilD_4Z1T-32" target="5ipQD0PV4N8gilD_4Z1T-33" edge="1">
          <mxGeometry relative="1" as="geometry" />
        </mxCell>
        <mxCell id="5ipQD0PV4N8gilD_4Z1T-32" value="Initialize_Statuses" style="whiteSpace=wrap;strokeWidth=2;" parent="5ipQD0PV4N8gilD_4Z1T-93" vertex="1">
          <mxGeometry x="170.5" y="189.2268907563025" width="190" height="73.51260504201682" as="geometry" />
        </mxCell>
        <mxCell id="5ipQD0PV4N8gilD_4Z1T-91" style="edgeStyle=orthogonalEdgeStyle;rounded=0;orthogonalLoop=1;jettySize=auto;html=1;exitX=0.5;exitY=1;exitDx=0;exitDy=0;" parent="5ipQD0PV4N8gilD_4Z1T-93" source="5ipQD0PV4N8gilD_4Z1T-33" target="5ipQD0PV4N8gilD_4Z1T-34" edge="1">
          <mxGeometry relative="1" as="geometry" />
        </mxCell>
        <mxCell id="5ipQD0PV4N8gilD_4Z1T-33" value="NGP_Soft_Deletion_Instance_table" style="whiteSpace=wrap;strokeWidth=2;" parent="5ipQD0PV4N8gilD_4Z1T-93" vertex="1">
          <mxGeometry x="121" y="318.03680981595096" width="289" height="139.14110429447854" as="geometry" />
        </mxCell>
        <mxCell id="5ipQD0PV4N8gilD_4Z1T-92" style="edgeStyle=orthogonalEdgeStyle;rounded=0;orthogonalLoop=1;jettySize=auto;html=1;exitX=0.5;exitY=1;exitDx=0;exitDy=0;entryX=0.5;entryY=0;entryDx=0;entryDy=0;" parent="5ipQD0PV4N8gilD_4Z1T-93" source="5ipQD0PV4N8gilD_4Z1T-34" target="5ipQD0PV4N8gilD_4Z1T-35" edge="1">
          <mxGeometry relative="1" as="geometry" />
        </mxCell>
        <mxCell id="5ipQD0PV4N8gilD_4Z1T-34" value="Update_Status" style="whiteSpace=wrap;strokeWidth=2;" parent="5ipQD0PV4N8gilD_4Z1T-93" vertex="1">
          <mxGeometry x="183.5" y="511.84224467701193" width="164" height="68.0672268907563" as="geometry" />
        </mxCell>
        <mxCell id="5ipQD0PV4N8gilD_4Z1T-35" value="NGP_Vacuum" style="whiteSpace=wrap;strokeWidth=2;" parent="5ipQD0PV4N8gilD_4Z1T-93" vertex="1">
          <mxGeometry x="188.5" y="716.0672268907562" width="154" height="73.51260504201682" as="geometry" />
        </mxCell>
        <mxCell id="5ipQD0PV4N8gilD_4Z1T-94" value="" style="group" parent="1" vertex="1" connectable="0">
          <mxGeometry x="-420" y="510" width="990" height="810" as="geometry" />
        </mxCell>
        <mxCell id="5ipQD0PV4N8gilD_4Z1T-3" value="Tables" style="whiteSpace=wrap;strokeWidth=2;" parent="5ipQD0PV4N8gilD_4Z1T-94" vertex="1">
          <mxGeometry width="990" height="810" as="geometry" />
        </mxCell>
        <mxCell id="5ipQD0PV4N8gilD_4Z1T-4" value="" style="whiteSpace=wrap;strokeWidth=2;" parent="5ipQD0PV4N8gilD_4Z1T-94" vertex="1">
          <mxGeometry x="20" y="27.969613259668506" width="274" height="754.060773480663" as="geometry" />
        </mxCell>
        <mxCell id="5ipQD0PV4N8gilD_4Z1T-5" value="" style="whiteSpace=wrap;strokeWidth=2;" parent="5ipQD0PV4N8gilD_4Z1T-94" vertex="1">
          <mxGeometry x="313" y="27.969613259668506" width="314" height="754.060773480663" as="geometry" />
        </mxCell>
        <mxCell id="5ipQD0PV4N8gilD_4Z1T-6" value="" style="whiteSpace=wrap;strokeWidth=2;" parent="5ipQD0PV4N8gilD_4Z1T-94" vertex="1">
          <mxGeometry x="647" y="27.969613259668506" width="323" height="754.060773480663" as="geometry" />
        </mxCell>
        <mxCell id="5ipQD0PV4N8gilD_4Z1T-7" value="New Command IDs &amp; XUIDs" style="whiteSpace=wrap;strokeWidth=2;" parent="5ipQD0PV4N8gilD_4Z1T-94" vertex="1">
          <mxGeometry x="682" y="55.93922651933701" width="253" height="60.414364640883974" as="geometry" />
        </mxCell>
        <mxCell id="5ipQD0PV4N8gilD_4Z1T-8" value="PENDING" style="whiteSpace=wrap;strokeWidth=2;" parent="5ipQD0PV4N8gilD_4Z1T-94" vertex="1">
          <mxGeometry x="747" y="199.292817679558" width="123" height="60.414364640883974" as="geometry" />
        </mxCell>
        <mxCell id="5ipQD0PV4N8gilD_4Z1T-9" value="IN_PROGRESS" style="whiteSpace=wrap;strokeWidth=2;" parent="5ipQD0PV4N8gilD_4Z1T-94" vertex="1">
          <mxGeometry x="731" y="316.6160220994475" width="156" height="60.414364640883974" as="geometry" />
        </mxCell>
        <mxCell id="5ipQD0PV4N8gilD_4Z1T-11" value="SOFT_DELETE_COMPLETE" style="whiteSpace=wrap;strokeWidth=2;" parent="5ipQD0PV4N8gilD_4Z1T-94" vertex="1">
          <mxGeometry x="688" y="510.0032044198895" width="241" height="60.414364640883974" as="geometry" />
        </mxCell>
        <mxCell id="5ipQD0PV4N8gilD_4Z1T-12" value="HARD_DELETE_COMPLETE" style="whiteSpace=wrap;strokeWidth=2;" parent="5ipQD0PV4N8gilD_4Z1T-94" vertex="1">
          <mxGeometry x="687" y="693.646408839779" width="244" height="60.414364640883974" as="geometry" />
        </mxCell>
        <mxCell id="5ipQD0PV4N8gilD_4Z1T-13" value="Initialize" style="whiteSpace=wrap;strokeWidth=2;" parent="5ipQD0PV4N8gilD_4Z1T-94" vertex="1">
          <mxGeometry x="409" y="55.93922651933701" width="123" height="60.414364640883974" as="geometry" />
        </mxCell>
        <mxCell id="5ipQD0PV4N8gilD_4Z1T-14" value="PENDING" style="whiteSpace=wrap;strokeWidth=2;" parent="5ipQD0PV4N8gilD_4Z1T-94" vertex="1">
          <mxGeometry x="409" y="172.292817679558" width="123" height="60.414364640883974" as="geometry" />
        </mxCell>
        <mxCell id="5ipQD0PV4N8gilD_4Z1T-15" value="IN_PROGRESS" style="whiteSpace=wrap;strokeWidth=2;" parent="5ipQD0PV4N8gilD_4Z1T-94" vertex="1">
          <mxGeometry x="392" y="316.6160220994475" width="156" height="60.414364640883974" as="geometry" />
        </mxCell>
        <mxCell id="5ipQD0PV4N8gilD_4Z1T-16" value="COMPLETE" style="whiteSpace=wrap;strokeWidth=2;" parent="5ipQD0PV4N8gilD_4Z1T-94" vertex="1">
          <mxGeometry x="403" y="432.9696132596685" width="135" height="60.414364640883974" as="geometry" />
        </mxCell>
        <mxCell id="5ipQD0PV4N8gilD_4Z1T-17" value="SOFT_DELETE_COMPLETE" style="whiteSpace=wrap;strokeWidth=2;" parent="5ipQD0PV4N8gilD_4Z1T-94" vertex="1">
          <mxGeometry x="350" y="549.3232044198895" width="241" height="60.414364640883974" as="geometry" />
        </mxCell>
        <mxCell id="5ipQD0PV4N8gilD_4Z1T-18" value="HARD_DELETE_COMPLETE" style="whiteSpace=wrap;strokeWidth=2;" parent="5ipQD0PV4N8gilD_4Z1T-94" vertex="1">
          <mxGeometry x="348" y="693.646408839779" width="244" height="60.414364640883974" as="geometry" />
        </mxCell>
        <mxCell id="5ipQD0PV4N8gilD_4Z1T-19" value="Stage 1: Init" style="whiteSpace=wrap;strokeWidth=2;" parent="5ipQD0PV4N8gilD_4Z1T-94" vertex="1">
          <mxGeometry x="83" y="55.93922651933701" width="147" height="60.414364640883974" as="geometry" />
        </mxCell>
        <mxCell id="5ipQD0PV4N8gilD_4Z1T-20" value="Stage 2: Soft Delete" style="whiteSpace=wrap;strokeWidth=2;" parent="5ipQD0PV4N8gilD_4Z1T-94" vertex="1">
          <mxGeometry x="55" y="172.292817679558" width="204" height="60.414364640883974" as="geometry" />
        </mxCell>
        <mxCell id="5ipQD0PV4N8gilD_4Z1T-21" value="Stage 3: Process" style="whiteSpace=wrap;strokeWidth=2;" parent="5ipQD0PV4N8gilD_4Z1T-94" vertex="1">
          <mxGeometry x="69" y="316.6160220994475" width="176" height="60.414364640883974" as="geometry" />
        </mxCell>
        <mxCell id="5ipQD0PV4N8gilD_4Z1T-22" value="Stage 4: Optimize" style="whiteSpace=wrap;strokeWidth=2;" parent="5ipQD0PV4N8gilD_4Z1T-94" vertex="1">
          <mxGeometry x="63" y="432.9696132596685" width="188" height="60.414364640883974" as="geometry" />
        </mxCell>
        <mxCell id="5ipQD0PV4N8gilD_4Z1T-23" value="Stage 5: Final" style="whiteSpace=wrap;strokeWidth=2;" parent="5ipQD0PV4N8gilD_4Z1T-94" vertex="1">
          <mxGeometry x="78" y="549.3232044198895" width="158" height="60.414364640883974" as="geometry" />
        </mxCell>
        <mxCell id="5ipQD0PV4N8gilD_4Z1T-24" value="Stage 6: Vacuum" style="whiteSpace=wrap;strokeWidth=2;" parent="5ipQD0PV4N8gilD_4Z1T-94" vertex="1">
          <mxGeometry x="67" y="693.646408839779" width="178" height="60.414364640883974" as="geometry" />
        </mxCell>
        <mxCell id="5ipQD0PV4N8gilD_4Z1T-36" value="" style="curved=1;startArrow=none;endArrow=block;exitX=0.5;exitY=1;entryX=0.5;entryY=0;rounded=0;" parent="5ipQD0PV4N8gilD_4Z1T-94" source="5ipQD0PV4N8gilD_4Z1T-7" target="5ipQD0PV4N8gilD_4Z1T-8" edge="1">
          <mxGeometry relative="1" as="geometry">
            <Array as="points" />
          </mxGeometry>
        </mxCell>
        <mxCell id="5ipQD0PV4N8gilD_4Z1T-37" value="" style="curved=1;startArrow=none;endArrow=block;exitX=0.5;exitY=1;entryX=0.5;entryY=0;rounded=0;" parent="5ipQD0PV4N8gilD_4Z1T-94" source="5ipQD0PV4N8gilD_4Z1T-8" target="5ipQD0PV4N8gilD_4Z1T-9" edge="1">
          <mxGeometry relative="1" as="geometry">
            <Array as="points" />
          </mxGeometry>
        </mxCell>
        <mxCell id="5ipQD0PV4N8gilD_4Z1T-38" value="" style="curved=1;startArrow=none;endArrow=block;exitX=0.5;exitY=1;entryX=0.5;entryY=0;rounded=0;entryDx=0;entryDy=0;" parent="5ipQD0PV4N8gilD_4Z1T-94" source="5ipQD0PV4N8gilD_4Z1T-9" target="5ipQD0PV4N8gilD_4Z1T-11" edge="1">
          <mxGeometry relative="1" as="geometry">
            <Array as="points" />
            <mxPoint x="808.5" y="432.96961325966845" as="targetPoint" />
          </mxGeometry>
        </mxCell>
        <mxCell id="5ipQD0PV4N8gilD_4Z1T-40" value="" style="curved=1;startArrow=none;endArrow=block;exitX=0.5;exitY=1;entryX=0.5;entryY=0;rounded=0;" parent="5ipQD0PV4N8gilD_4Z1T-94" source="5ipQD0PV4N8gilD_4Z1T-11" target="5ipQD0PV4N8gilD_4Z1T-12" edge="1">
          <mxGeometry relative="1" as="geometry">
            <Array as="points" />
          </mxGeometry>
        </mxCell>
        <mxCell id="5ipQD0PV4N8gilD_4Z1T-41" value="" style="curved=1;startArrow=none;endArrow=block;exitX=0.5;exitY=1;entryX=0.5;entryY=0;rounded=0;" parent="5ipQD0PV4N8gilD_4Z1T-94" source="5ipQD0PV4N8gilD_4Z1T-13" target="5ipQD0PV4N8gilD_4Z1T-14" edge="1">
          <mxGeometry relative="1" as="geometry">
            <Array as="points" />
          </mxGeometry>
        </mxCell>
        <mxCell id="5ipQD0PV4N8gilD_4Z1T-42" value="" style="curved=1;startArrow=none;endArrow=block;exitX=0.5;exitY=1;entryX=0.5;entryY=0;rounded=0;" parent="5ipQD0PV4N8gilD_4Z1T-94" source="5ipQD0PV4N8gilD_4Z1T-14" target="5ipQD0PV4N8gilD_4Z1T-15" edge="1">
          <mxGeometry relative="1" as="geometry">
            <Array as="points" />
          </mxGeometry>
        </mxCell>
        <mxCell id="5ipQD0PV4N8gilD_4Z1T-43" value="" style="curved=1;startArrow=none;endArrow=block;exitX=0.5;exitY=1;entryX=0.5;entryY=0;rounded=0;" parent="5ipQD0PV4N8gilD_4Z1T-94" source="5ipQD0PV4N8gilD_4Z1T-15" target="5ipQD0PV4N8gilD_4Z1T-16" edge="1">
          <mxGeometry relative="1" as="geometry">
            <Array as="points" />
          </mxGeometry>
        </mxCell>
        <mxCell id="5ipQD0PV4N8gilD_4Z1T-44" value="" style="curved=1;startArrow=none;endArrow=block;exitX=0.5;exitY=1;entryX=0.5;entryY=0;rounded=0;" parent="5ipQD0PV4N8gilD_4Z1T-94" source="5ipQD0PV4N8gilD_4Z1T-16" target="5ipQD0PV4N8gilD_4Z1T-17" edge="1">
          <mxGeometry relative="1" as="geometry">
            <Array as="points" />
          </mxGeometry>
        </mxCell>
        <mxCell id="5ipQD0PV4N8gilD_4Z1T-45" value="" style="curved=1;startArrow=none;endArrow=block;exitX=0.5;exitY=1;entryX=0.5;entryY=0;rounded=0;" parent="5ipQD0PV4N8gilD_4Z1T-94" source="5ipQD0PV4N8gilD_4Z1T-17" target="5ipQD0PV4N8gilD_4Z1T-18" edge="1">
          <mxGeometry relative="1" as="geometry">
            <Array as="points" />
          </mxGeometry>
        </mxCell>
        <mxCell id="5ipQD0PV4N8gilD_4Z1T-46" value="" style="curved=1;startArrow=none;endArrow=block;exitX=0.5;exitY=1;entryX=0.5;entryY=0;rounded=0;" parent="5ipQD0PV4N8gilD_4Z1T-94" source="5ipQD0PV4N8gilD_4Z1T-19" target="5ipQD0PV4N8gilD_4Z1T-20" edge="1">
          <mxGeometry relative="1" as="geometry">
            <Array as="points" />
          </mxGeometry>
        </mxCell>
        <mxCell id="5ipQD0PV4N8gilD_4Z1T-47" value="" style="curved=1;startArrow=none;endArrow=block;exitX=0.5;exitY=1;entryX=0.5;entryY=0;rounded=0;" parent="5ipQD0PV4N8gilD_4Z1T-94" source="5ipQD0PV4N8gilD_4Z1T-20" target="5ipQD0PV4N8gilD_4Z1T-21" edge="1">
          <mxGeometry relative="1" as="geometry">
            <Array as="points" />
          </mxGeometry>
        </mxCell>
        <mxCell id="5ipQD0PV4N8gilD_4Z1T-48" value="" style="curved=1;startArrow=none;endArrow=block;exitX=0.5;exitY=1;entryX=0.5;entryY=0;rounded=0;" parent="5ipQD0PV4N8gilD_4Z1T-94" source="5ipQD0PV4N8gilD_4Z1T-21" target="5ipQD0PV4N8gilD_4Z1T-22" edge="1">
          <mxGeometry relative="1" as="geometry">
            <Array as="points" />
          </mxGeometry>
        </mxCell>
        <mxCell id="5ipQD0PV4N8gilD_4Z1T-49" value="" style="curved=1;startArrow=none;endArrow=block;exitX=0.5;exitY=1;entryX=0.5;entryY=0;rounded=0;" parent="5ipQD0PV4N8gilD_4Z1T-94" source="5ipQD0PV4N8gilD_4Z1T-22" target="5ipQD0PV4N8gilD_4Z1T-23" edge="1">
          <mxGeometry relative="1" as="geometry">
            <Array as="points" />
          </mxGeometry>
        </mxCell>
        <mxCell id="5ipQD0PV4N8gilD_4Z1T-50" value="" style="curved=1;startArrow=none;endArrow=block;exitX=0.5;exitY=1;entryX=0.5;entryY=0;rounded=0;" parent="5ipQD0PV4N8gilD_4Z1T-94" source="5ipQD0PV4N8gilD_4Z1T-23" target="5ipQD0PV4N8gilD_4Z1T-24" edge="1">
          <mxGeometry relative="1" as="geometry">
            <Array as="points" />
          </mxGeometry>
        </mxCell>
        <mxCell id="-aGv292zEZ3p60eQ2w6X-1" value="PROCESS LAYER" style="text;html=1;align=center;verticalAlign=middle;whiteSpace=wrap;rounded=0;" vertex="1" parent="1">
          <mxGeometry x="840" y="460" width="120" height="30" as="geometry" />
        </mxCell>
        <mxCell id="-aGv292zEZ3p60eQ2w6X-2" value="WORKFLOW LAYER" style="text;html=1;align=center;verticalAlign=middle;whiteSpace=wrap;rounded=0;" vertex="1" parent="1">
          <mxGeometry x="1560" y="460" width="120" height="30" as="geometry" />
        </mxCell>
        <mxCell id="-aGv292zEZ3p60eQ2w6X-3" value="PROCESS STATUS PERSISTENCE LAYER" style="text;html=1;align=center;verticalAlign=middle;whiteSpace=wrap;rounded=0;" vertex="1" parent="1">
          <mxGeometry x="-90" y="450" width="240" height="30" as="geometry" />
        </mxCell>
        <mxCell id="-aGv292zEZ3p60eQ2w6X-4" style="edgeStyle=orthogonalEdgeStyle;rounded=0;orthogonalLoop=1;jettySize=auto;html=1;exitX=0;exitY=0.5;exitDx=0;exitDy=0;entryX=0.996;entryY=0.381;entryDx=0;entryDy=0;entryPerimeter=0;" edge="1" parent="1" source="5ipQD0PV4N8gilD_4Z1T-25" target="5ipQD0PV4N8gilD_4Z1T-8">
          <mxGeometry relative="1" as="geometry" />
        </mxCell>
      </root>
    </mxGraphModel>
  </diagram>
  <diagram id="Lsfv59p1bem32clpS1qX" name="Page-2">
    <mxGraphModel dx="1257" dy="739" grid="1" gridSize="10" guides="1" tooltips="1" connect="1" arrows="1" fold="1" page="1" pageScale="1" pageWidth="850" pageHeight="1100" math="0" shadow="0">
      <root>
        <mxCell id="0" />
        <mxCell id="1" parent="0" />
        <mxCell id="ZAgiiHLeGDgg1DT_-_x1-1" value="Tables" style="whiteSpace=wrap;strokeWidth=2;" vertex="1" parent="1">
          <mxGeometry x="20" y="52" width="77" height="40" as="geometry" />
        </mxCell>
        <mxCell id="ZAgiiHLeGDgg1DT_-_x1-2" value="Vacuum" style="whiteSpace=wrap;strokeWidth=2;" vertex="1" parent="1">
          <mxGeometry x="132" y="20" width="227" height="104" as="geometry" />
        </mxCell>
        <mxCell id="ZAgiiHLeGDgg1DT_-_x1-3" value="Soft Deletion" style="whiteSpace=wrap;strokeWidth=2;" vertex="1" parent="1">
          <mxGeometry x="379" y="20" width="2866" height="291" as="geometry" />
        </mxCell>
        <mxCell id="ZAgiiHLeGDgg1DT_-_x1-4" value="Populate_NGP_Control_Table" style="whiteSpace=wrap;strokeWidth=2;" vertex="1" parent="1">
          <mxGeometry x="1513" y="45" width="269" height="54" as="geometry" />
        </mxCell>
        <mxCell id="ZAgiiHLeGDgg1DT_-_x1-5" value="NGP_Initialize_Statuses" style="whiteSpace=wrap;strokeWidth=2;" vertex="1" parent="1">
          <mxGeometry x="1235" y="45" width="229" height="54" as="geometry" />
        </mxCell>
        <mxCell id="ZAgiiHLeGDgg1DT_-_x1-6" value="NGP_Soft_Deletion_Instance_table" style="whiteSpace=wrap;strokeWidth=2;" vertex="1" parent="1">
          <mxGeometry x="2326" y="45" width="309" height="54" as="geometry" />
        </mxCell>
        <mxCell id="ZAgiiHLeGDgg1DT_-_x1-7" value="Update_Status" style="whiteSpace=wrap;strokeWidth=2;" vertex="1" parent="1">
          <mxGeometry x="2044" y="45" width="164" height="54" as="geometry" />
        </mxCell>
        <mxCell id="ZAgiiHLeGDgg1DT_-_x1-8" value="NGP_CONTROL" style="whiteSpace=wrap;strokeWidth=2;" vertex="1" parent="1">
          <mxGeometry x="920" y="232" width="166" height="54" as="geometry" />
        </mxCell>
        <mxCell id="ZAgiiHLeGDgg1DT_-_x1-9" value="NGP_AUDIT" style="whiteSpace=wrap;strokeWidth=2;" vertex="1" parent="1">
          <mxGeometry x="2105" y="232" width="142" height="54" as="geometry" />
        </mxCell>
        <mxCell id="ZAgiiHLeGDgg1DT_-_x1-10" value="NGP_BATCH_AUDIT_DETAILS" style="whiteSpace=wrap;strokeWidth=2;" vertex="1" parent="1">
          <mxGeometry x="2761" y="232" width="261" height="54" as="geometry" />
        </mxCell>
        <mxCell id="ZAgiiHLeGDgg1DT_-_x1-11" value="NGP_VACUUM" style="whiteSpace=wrap;strokeWidth=2;" vertex="1" parent="1">
          <mxGeometry x="167" y="45" width="157" height="54" as="geometry" />
        </mxCell>
        <mxCell id="ZAgiiHLeGDgg1DT_-_x1-12" value="Insert NEW XUIDs" style="curved=1;startArrow=none;endArrow=block;exitX=0.66;exitY=1;entryX=1;entryY=0.32;rounded=0;" edge="1" parent="1" source="ZAgiiHLeGDgg1DT_-_x1-4" target="ZAgiiHLeGDgg1DT_-_x1-8">
          <mxGeometry relative="1" as="geometry">
            <Array as="points">
              <mxPoint x="1733" y="124" />
              <mxPoint x="1733" y="178" />
            </Array>
          </mxGeometry>
        </mxCell>
        <mxCell id="ZAgiiHLeGDgg1DT_-_x1-13" value="Assign request_control_id &amp; Status = PENDING" style="curved=1;startArrow=none;endArrow=block;exitX=0.69;exitY=1;entryX=1;entryY=0.21;rounded=0;" edge="1" parent="1" source="ZAgiiHLeGDgg1DT_-_x1-5" target="ZAgiiHLeGDgg1DT_-_x1-8">
          <mxGeometry relative="1" as="geometry">
            <Array as="points">
              <mxPoint x="1434" y="124" />
              <mxPoint x="1434" y="178" />
            </Array>
          </mxGeometry>
        </mxCell>
        <mxCell id="ZAgiiHLeGDgg1DT_-_x1-14" value="Start Soft Deletion Loop" style="curved=1;startArrow=none;endArrow=block;exitX=0.62;exitY=1;entryX=1;entryY=0.21;rounded=0;" edge="1" parent="1" source="ZAgiiHLeGDgg1DT_-_x1-6" target="ZAgiiHLeGDgg1DT_-_x1-9">
          <mxGeometry relative="1" as="geometry">
            <Array as="points">
              <mxPoint x="2553" y="124" />
              <mxPoint x="2553" y="178" />
            </Array>
          </mxGeometry>
        </mxCell>
        <mxCell id="ZAgiiHLeGDgg1DT_-_x1-15" value="Mask XUIDs by RUIDs in Target Tables" style="curved=1;startArrow=none;endArrow=block;exitX=0;exitY=0.62;entryX=0.97;entryY=-0.01;rounded=0;" edge="1" parent="1" source="ZAgiiHLeGDgg1DT_-_x1-6" target="ZAgiiHLeGDgg1DT_-_x1-8">
          <mxGeometry relative="1" as="geometry">
            <Array as="points">
              <mxPoint x="1236" y="124" />
              <mxPoint x="1236" y="178" />
            </Array>
          </mxGeometry>
        </mxCell>
        <mxCell id="ZAgiiHLeGDgg1DT_-_x1-16" value="Log Column-wise Details" style="curved=1;startArrow=none;endArrow=block;exitX=1;exitY=0.74;entryX=0.78;entryY=-0.01;rounded=0;" edge="1" parent="1" source="ZAgiiHLeGDgg1DT_-_x1-6" target="ZAgiiHLeGDgg1DT_-_x1-10">
          <mxGeometry relative="1" as="geometry">
            <Array as="points">
              <mxPoint x="3108" y="124" />
              <mxPoint x="3108" y="178" />
            </Array>
          </mxGeometry>
        </mxCell>
        <mxCell id="ZAgiiHLeGDgg1DT_-_x1-17" value="Status Update: DELETION_IN_PROGRESS → COMPLETE" style="curved=1;startArrow=none;endArrow=block;exitX=0.27;exitY=1;entryX=0.9;entryY=-0.01;rounded=0;" edge="1" parent="1" source="ZAgiiHLeGDgg1DT_-_x1-6" target="ZAgiiHLeGDgg1DT_-_x1-9">
          <mxGeometry relative="1" as="geometry">
            <Array as="points">
              <mxPoint x="2345" y="124" />
              <mxPoint x="2345" y="178" />
            </Array>
          </mxGeometry>
        </mxCell>
        <mxCell id="ZAgiiHLeGDgg1DT_-_x1-18" value="Update FINAL Status = COMPLETE" style="curved=1;startArrow=none;endArrow=block;exitX=0;exitY=0.57;entryX=0.6;entryY=-0.01;rounded=0;" edge="1" parent="1" source="ZAgiiHLeGDgg1DT_-_x1-7" target="ZAgiiHLeGDgg1DT_-_x1-8">
          <mxGeometry relative="1" as="geometry">
            <Array as="points">
              <mxPoint x="1051" y="124" />
              <mxPoint x="1051" y="178" />
            </Array>
          </mxGeometry>
        </mxCell>
        <mxCell id="ZAgiiHLeGDgg1DT_-_x1-19" value="Status COMPLETE for Task in Audit" style="curved=1;startArrow=none;endArrow=block;exitX=0.5;exitY=1;entryX=0.38;entryY=-0.01;rounded=0;" edge="1" parent="1" source="ZAgiiHLeGDgg1DT_-_x1-7" target="ZAgiiHLeGDgg1DT_-_x1-9">
          <mxGeometry relative="1" as="geometry">
            <Array as="points">
              <mxPoint x="2126" y="178" />
            </Array>
          </mxGeometry>
        </mxCell>
        <mxCell id="ZAgiiHLeGDgg1DT_-_x1-20" value="Final Batch Summary" style="curved=1;startArrow=none;endArrow=block;exitX=1;exitY=0.6;entryX=0.54;entryY=-0.01;rounded=0;" edge="1" parent="1" source="ZAgiiHLeGDgg1DT_-_x1-7" target="ZAgiiHLeGDgg1DT_-_x1-10">
          <mxGeometry relative="1" as="geometry">
            <Array as="points">
              <mxPoint x="2921" y="124" />
              <mxPoint x="2921" y="178" />
            </Array>
          </mxGeometry>
        </mxCell>
        <mxCell id="ZAgiiHLeGDgg1DT_-_x1-21" value="Load request_control_id where retention satisfied" style="curved=1;startArrow=none;endArrow=block;exitX=0.5;exitY=1;entryX=0.21;entryY=-0.01;rounded=0;" edge="1" parent="1" source="ZAgiiHLeGDgg1DT_-_x1-11" target="ZAgiiHLeGDgg1DT_-_x1-8">
          <mxGeometry relative="1" as="geometry">
            <Array as="points">
              <mxPoint x="245" y="124" />
              <mxPoint x="857" y="178" />
            </Array>
          </mxGeometry>
        </mxCell>
        <mxCell id="ZAgiiHLeGDgg1DT_-_x1-22" value="VACUUM masked XUIDs" style="curved=1;startArrow=none;endArrow=block;exitX=0.38;exitY=1;entryX=0;entryY=0.13;rounded=0;" edge="1" parent="1" source="ZAgiiHLeGDgg1DT_-_x1-11" target="ZAgiiHLeGDgg1DT_-_x1-8">
          <mxGeometry relative="1" as="geometry">
            <Array as="points">
              <mxPoint x="208" y="124" />
              <mxPoint x="661" y="178" />
            </Array>
          </mxGeometry>
        </mxCell>
        <mxCell id="ZAgiiHLeGDgg1DT_-_x1-23" value="Log vacuum task start/end" style="curved=1;startArrow=none;endArrow=block;exitX=0.65;exitY=1;entryX=0;entryY=0.09;rounded=0;" edge="1" parent="1" source="ZAgiiHLeGDgg1DT_-_x1-11" target="ZAgiiHLeGDgg1DT_-_x1-9">
          <mxGeometry relative="1" as="geometry">
            <Array as="points">
              <mxPoint x="292" y="124" />
              <mxPoint x="1914" y="178" />
            </Array>
          </mxGeometry>
        </mxCell>
        <mxCell id="ZAgiiHLeGDgg1DT_-_x1-24" value="Insert vacuum metrics" style="curved=1;startArrow=none;endArrow=block;exitX=0.72;exitY=1;entryX=0.31;entryY=-0.01;rounded=0;" edge="1" parent="1" source="ZAgiiHLeGDgg1DT_-_x1-11" target="ZAgiiHLeGDgg1DT_-_x1-10">
          <mxGeometry relative="1" as="geometry">
            <Array as="points">
              <mxPoint x="312" y="124" />
              <mxPoint x="2743" y="178" />
            </Array>
          </mxGeometry>
        </mxCell>
        <mxCell id="ZAgiiHLeGDgg1DT_-_x1-25" value="Update Status = VACUUM_COMPLETE" style="curved=1;startArrow=none;endArrow=block;exitX=0.31;exitY=1;entryX=0;entryY=0.25;rounded=0;" edge="1" parent="1" source="ZAgiiHLeGDgg1DT_-_x1-11" target="ZAgiiHLeGDgg1DT_-_x1-8">
          <mxGeometry relative="1" as="geometry">
            <Array as="points">
              <mxPoint x="188" y="124" />
              <mxPoint x="484" y="178" />
            </Array>
          </mxGeometry>
        </mxCell>
      </root>
    </mxGraphModel>
  </diagram>
</mxfile>
